<?xml version="1.0" standalone="no"?>
<!DOCTYPE svg PUBLIC "-//W3C//DTD SVG 20010904//EN"
 "http://www.w3.org/TR/2001/REC-SVG-20010904/DTD/svg10.dtd">
<svg version="1.0" xmlns="http://www.w3.org/2000/svg"
 width="512.000000pt" height="512.000000pt" viewBox="0 0 512.000000 512.000000"
 preserveAspectRatio="xMidYMid meet">
<metadata>
Created by potrace 1.14, written by Peter Selinger 2001-2017
</metadata>
<g transform="translate(0.000000,512.000000) scale(0.100000,-0.100000)"
fill="#000000" stroke="none">
<path d="M695 5113 c-313 -44 -577 -278 -667 -590 l-23 -78 0 -1885 0 -1885
23 -78 c82 -283 294 -492 582 -574 62 -17 150 -18 1950 -18 l1885 0 78 23
c279 81 488 290 569 569 l23 78 0 1885 0 1885 -23 78 c-79 274 -286 484 -562
569 l-75 23 -1865 1 c-1026 1 -1878 -1 -1895 -3z m914 -2155 c102 -460 188
-839 191 -842 3 -3 106 375 230 839 l223 845 317 0 317 0 214 -849 c118 -468
217 -842 220 -833 4 9 93 392 200 850 l193 832 324 0 c303 0 323 -1 318 -17
-10 -33 -656 -2453 -656 -2458 0 -3 -159 -5 -353 -5 l-352 0 -220 805 c-130
479 -222 799 -226 788 -3 -10 -100 -372 -215 -805 l-209 -788 -352 0 c-194 0
-353 2 -353 5 0 5 -646 2426 -656 2458 -5 16 13 17 327 15 l333 -3 185 -837z"/>
</g>
</svg>
